<?xml version="1.0" encoding="utf-8"?>
<!-- Generator: Adobe Illustrator 24.0.3, SVG Export Plug-In . SVG Version: 6.00 Build 0)  -->
<svg version="1.1" xmlns="http://www.w3.org/2000/svg" xmlns:xlink="http://www.w3.org/1999/xlink" x="0px" y="0px"
	 viewBox="0 0 141.73 141.73" style="enable-background:new 0 0 141.73 141.73;" xml:space="preserve">
<style type="text/css">
	.st0{opacity:0.61;clip-path:url(#XMLID_5_);fill:#DC9B3C;}
	.st1{opacity:0.62;fill:#9A5A21;}
	.st2{fill:#CF8335;}
	.st3{fill:#CFAB93;}
	.st4{fill:#2B2B2A;}
	.st5{clip-path:url(#XMLID_6_);fill:#EFE8E0;}
	.st6{clip-path:url(#XMLID_7_);fill:#EB6862;}
	.st7{fill:#FFFFFF;}
</style>
<g id="Capa_1">
</g>
<g id="Capa_2">
	<g>
		<g>
			<defs>
				<circle id="XMLID_2_" cx="70.87" cy="70.87" r="69.32"/>
			</defs>
			<use xlink:href="#XMLID_2_"  style="overflow:visible;fill:#F7D096;"/>
			<clipPath id="XMLID_5_">
				<use xlink:href="#XMLID_2_"  style="overflow:visible;"/>
			</clipPath>
			<path class="st0" d="M130.8,25.57c-0.75,0.25-25.82,4.51-25.82,4.51L94.92,81.47l-56.11,1.25l2.51,11.03L49.58,94l-4.26,18.8
				l39.61,30.33l42.36-22.56l16.79-43.87L130.8,25.57z"/>
		</g>
		<rect x="36.9" y="112.8" class="st1" width="67.93" height="3.01"/>
		<path class="st2" d="M101.08,85.37l8.72-53.07c0.3-1.82-0.84-3.63-2.65-3.98c-1.87-0.36-3.65,0.89-3.95,2.75l-1.19,7.26
			l-71.34,8.54c-0.96,0.11-1.82,0.64-2.37,1.43s-0.73,1.78-0.49,2.72l11.66,46.65c0.37,1.49,1.72,2.54,3.26,2.54l61.44,0
			c1.85,0,3.51-0.71,3.51-3.27c0-2.94-1.47-3.45-3.36-3.45H45.36l-1.33-5.31h53.74C99.41,88.19,100.81,87,101.08,85.37z
			 M77.71,81.47l1.11-33.6l8.77-1.05l-4.56,34.65H77.71z M53.94,81.47l-4.36-30.1l8-0.96l1.53,31.06H53.94z M64.26,49.61l7.81-0.93
			l-1.08,32.79h-5.16L64.26,49.61z M35.25,53.09l7.66-0.92l4.25,29.3h-4.81L35.25,53.09z M89.79,81.47L94.46,46l6.41-0.77
			l-5.96,36.24H89.79z"/>
		<rect x="45.06" y="97.26" class="st3" width="9.51" height="7.43"/>
		<rect x="90.11" y="97.26" class="st3" width="9.51" height="7.43"/>
		<circle class="st4" cx="49.81" cy="107.06" r="7.23"/>
		<g>
			<defs>
				<path id="XMLID_3_" d="M99.27,83.13L108,30.06c0.3-1.82-0.84-3.63-2.65-3.98c-1.87-0.36-3.65,0.89-3.95,2.75l-1.19,7.26
					l-71.34,8.54c-0.96,0.11-1.82,0.64-2.37,1.43s-0.73,1.78-0.49,2.72l11.66,46.65c0.37,1.49,1.72,2.54,3.26,2.54h61.44
					c1.85,0,3.51-0.71,3.51-3.27c0-2.94-1.47-3.45-3.36-3.45H43.55l-1.33-5.31h53.74C97.6,85.95,99.01,84.76,99.27,83.13z
					 M75.9,79.23l1.11-33.6l8.77-1.05l-4.56,34.65H75.9z M52.13,79.23l-4.36-30.1l8-0.96l1.53,31.06H52.13z M62.45,47.37l7.81-0.93
					l-1.08,32.79h-5.16L62.45,47.37z M33.44,50.85l7.66-0.92l4.25,29.3h-4.81L33.44,50.85z M87.98,79.23l4.67-35.47l6.41-0.77
					l-5.96,36.24H87.98z"/>
			</defs>
			<use xlink:href="#XMLID_3_"  style="overflow:visible;fill:#FFFFFF;"/>
			<clipPath id="XMLID_6_">
				<use xlink:href="#XMLID_3_"  style="overflow:visible;"/>
			</clipPath>
			<path class="st5" d="M99.27,84.48L108,31.4c0.3-1.82-0.84-3.63-2.65-3.98c-1.87-0.36-3.65,0.89-3.95,2.75l-1.19,7.26l-71.34,8.54
				c-0.96,0.11-1.82,0.64-2.37,1.43s-0.73,1.78-0.49,2.72l11.66,46.65c0.37,1.49,1.72,2.54,3.26,2.54l61.44,0
				c1.85,0,3.51-0.71,3.51-3.27c0-2.94-1.47-3.45-3.36-3.45H43.55l-1.33-5.31h53.74C97.6,87.29,99.01,86.1,99.27,84.48z M75.9,80.57
				l1.11-33.6l8.77-1.05l-4.56,34.65H75.9z M52.13,80.57l-4.36-30.1l8-0.96l1.53,31.06H52.13z M62.45,48.72l7.81-0.93l-1.08,32.79
				h-5.16L62.45,48.72z M33.44,52.19l7.66-0.92l4.25,29.3h-4.81L33.44,52.19z M87.98,80.57l4.67-35.47l6.41-0.77l-5.96,36.24H87.98z
				"/>
		</g>
		<g>
			<defs>
				<path id="XMLID_1_" d="M125.19,29.35l-19.85,3.26c-1.24,0.2-2.41-0.64-2.61-1.87l-0.81-4.95c-0.2-1.24,0.64-2.41,1.87-2.61
					l19.85-3.26c1.24-0.2,2.41,0.64,2.61,1.87l0.81,4.95C127.27,27.98,126.43,29.15,125.19,29.35z"/>
			</defs>
			<use xlink:href="#XMLID_1_"  style="overflow:visible;fill:#BD3E33;"/>
			<clipPath id="XMLID_7_">
				<use xlink:href="#XMLID_1_"  style="overflow:visible;"/>
			</clipPath>
			<path class="st6" d="M126.96,21.4l-25.83,4.24c-1.24,0.2-2.41-0.64-2.61-1.87l-0.81-4.95c-0.2-1.24,0.64-2.41,1.87-2.61
				l25.83-4.24c1.24-0.2,2.41,0.64,2.61,1.87l0.81,4.95C129.04,20.02,128.2,21.19,126.96,21.4z"/>
		</g>
		<circle class="st7" cx="49.81" cy="107.06" r="2.97"/>
		<circle class="st4" cx="94.87" cy="107.06" r="7.23"/>
		<circle class="st7" cx="94.87" cy="107.06" r="2.97"/>
	</g>
</g>
</svg>
